<svg width="738" height="893" xmlns="http://www.w3.org/2000/svg" fill="none">

 <path id="svg_3" d="m36.7507,323.946c-3.5076,21.837 -25.2953,53.806 -35.7507,67.061c8.76903,24.601 49.916,0 61.0459,-8.088c8.904,-6.471 9.3312,27.408 8.4318,45.157c4.7218,15.277 15.1772,45.83 19.2244,45.83c5.0591,0 37.0999,28.982 38.1119,40.439c0.809,9.167 24.171,19.771 35.75,23.927l0,21.23c-24.283,5.055 -78.5837,25.207 -101.5181,65.377c-22.9343,40.169 106.6901,107.725 174.3691,136.481c92.412,6.066 267.455,151.646 267.455,128.057c0,-72.292 -85.554,-165.688 -121.417,-203.88l-3.71,-73.464c20.573,8.762 66.847,25.207 87.353,20.893c20.506,-4.313 29.005,-55.491 30.692,-80.541c2.36,13.48 71.164,-37.406 116.695,124.687c15.08,53.685 79.259,29.318 107.589,4.718c15.09,-23.104 14.934,-51.22 15.852,-56.951c2.159,-13.48 -42.271,-20.445 -64.756,-22.242c-5.733,36.508 -29.47,47.179 -42.159,16.513c-49.916,-120.643 -126.139,-56.952 -133.221,-80.878c-5.667,-19.141 2.36,-45.045 7.082,-55.604c16.526,0 41.484,0 47.218,-8.762c24.48,-37.408 -30.787,-91.437 -46.921,-107.21l-0.297,-0.29l8.095,-77.508c37.774,9.324 113.12,23.185 112.311,4.044c-0.81,-19.141 -75.212,-65.938 -112.311,-86.944c-83.643,-200.84657 -211.806,-173.8873 -211.806,-185.0079c0,-23.67668 -13.941,-21.45514 -22.935,-17.52357c-10.342,13.14267 -32.31,36.12557 -37.437,22.91547c-5.126,-13.2101 -33.164,-15.1644 -46.543,-14.4903c-10.455,8.0875 10.118,19.0714 -3.035,24.2634c-149.4105,58.9749 -149.0738,260.4939 -153.4583,287.7909z"/>

 <circle cx="50" cy="50" r="30" fill="blue"  class="el"/>
</svg>