<svg width="111" height="134" viewBox="0 0 111 134" fill="none" xmlns="http://www.w3.org/2000/svg">
<g id="Vector 7">
<g filter="url(#filter0_i_18_311)">
<path d="M6.2946 48.8438C5.77513 52.0789 2.54842 56.8151 1 58.7788C2.29867 62.4234 8.39245 58.7788 10.0408 57.5806C11.3594 56.6219 11.4227 61.6411 11.2895 64.2705C11.9888 66.5337 13.5372 71.0602 14.1366 71.0602C14.8858 71.0602 19.631 75.3537 19.7808 77.0512C19.9007 78.4091 23.3605 79.9801 25.0754 80.5958V83.7411C21.4791 84.4899 13.4373 87.4754 10.0408 93.4265C6.64424 99.3775 25.8413 109.386 35.8644 113.646C49.5504 114.545 75.474 136.112 75.474 132.617C75.474 121.907 62.8036 108.071 57.4923 102.413L56.9429 91.5293C59.9898 92.8274 66.8428 95.2637 69.8797 94.6246C72.9166 93.9856 74.1753 86.4037 74.4251 82.6927C74.7747 84.6896 84.9643 77.151 91.7074 101.165C93.9407 109.118 103.445 105.508 107.641 101.864C109.876 98.4409 109.853 94.2755 109.989 93.4265C110.308 91.4295 103.728 90.3977 100.399 90.1314C99.5494 95.5399 96.034 97.1209 94.1549 92.5777C86.7625 74.7047 75.474 84.1405 74.4251 80.5958C73.5859 77.7601 74.7747 73.9226 75.474 72.3583C77.9215 72.3583 81.6177 72.3583 82.4668 71.0602C86.0922 65.5182 77.9072 57.5138 75.5179 55.1772L75.474 55.1342L76.6728 43.6516C82.2671 45.0328 93.4257 47.0864 93.3058 44.2507C93.1859 41.415 82.1672 34.4821 76.6728 31.3701C64.2854 1.61503 45.3048 5.60899 45.3048 3.96149C45.3048 0.45384 43.2402 0.782957 41.9082 1.36541C40.3765 3.31248 37.1231 6.71734 36.3639 4.7603C35.6047 2.80325 31.4522 2.51372 29.4709 2.61359C27.9225 3.81173 30.9694 5.43898 29.0214 6.20816C6.89407 14.9452 6.94393 44.7999 6.2946 48.8438Z" fill="#DCD2BB"/>
</g>
<path d="M6.2946 48.8438C5.77513 52.0789 2.54842 56.8151 1 58.7788C2.29867 62.4234 8.39245 58.7788 10.0408 57.5806C11.3594 56.6219 11.4227 61.6411 11.2895 64.2705C11.9888 66.5337 13.5372 71.0602 14.1366 71.0602C14.8858 71.0602 19.631 75.3537 19.7808 77.0512C19.9007 78.4091 23.3605 79.9801 25.0754 80.5958V83.7411C21.4791 84.4899 13.4373 87.4754 10.0408 93.4265C6.64424 99.3775 25.8413 109.386 35.8644 113.646C49.5504 114.545 75.474 136.112 75.474 132.617C75.474 121.907 62.8036 108.071 57.4923 102.413L56.9429 91.5293C59.9898 92.8274 66.8428 95.2637 69.8797 94.6246C72.9166 93.9856 74.1753 86.4037 74.4251 82.6927C74.7747 84.6896 84.9643 77.151 91.7074 101.165C93.9407 109.118 103.445 105.508 107.641 101.864C109.876 98.4409 109.853 94.2755 109.989 93.4265C110.308 91.4295 103.728 90.3977 100.399 90.1314C99.5494 95.5399 96.034 97.1209 94.1549 92.5777C86.7625 74.7047 75.474 84.1405 74.4251 80.5958C73.5859 77.7601 74.7747 73.9226 75.474 72.3583C77.9215 72.3583 81.6177 72.3583 82.4668 71.0602C86.0922 65.5182 77.9072 57.5138 75.5179 55.1772L75.474 55.1342L76.6728 43.6516C82.2671 45.0328 93.4257 47.0864 93.3058 44.2507C93.1859 41.415 82.1672 34.4821 76.6728 31.3701C64.2854 1.61503 45.3048 5.60899 45.3048 3.96149C45.3048 0.45384 43.2402 0.782957 41.9082 1.36541C40.3765 3.31248 37.1231 6.71734 36.3639 4.7603C35.6047 2.80325 31.4522 2.51372 29.4709 2.61359C27.9225 3.81173 30.9694 5.43898 29.0214 6.20816C6.89407 14.9452 6.94393 44.7999 6.2946 48.8438Z" stroke="black"/>
</g>
<defs>
<filter id="filter0_i_18_311" x="0.436279" y="0.5" width="110.064" height="137" filterUnits="userSpaceOnUse" color-interpolation-filters="sRGB">
<feFlood flood-opacity="0" result="BackgroundImageFix"/>
<feBlend mode="normal" in="SourceGraphic" in2="BackgroundImageFix" result="shape"/>
<feColorMatrix in="SourceAlpha" type="matrix" values="0 0 0 0 0 0 0 0 0 0 0 0 0 0 0 0 0 0 127 0" result="hardAlpha"/>
<feOffset dy="20"/>
<feGaussianBlur stdDeviation="2"/>
<feComposite in2="hardAlpha" operator="arithmetic" k2="-1" k3="1"/>
<feColorMatrix type="matrix" values="0 0 0 0 0 0 0 0 0 0 0 0 0 0 0 0 0 0 0.25 0"/>
<feBlend mode="normal" in2="shape" result="effect1_innerShadow_18_311"/>
</filter>
</defs>
</svg>
